<svg xmlns="http://w3.org" style="display:none;">
<!--[big] set of icons in the range 32-32px-->
    <symbol id="vk-ico_big-set" width="32" height="32" viewBox="0 0 32 32" fill="none" xmlns="http://www.w3.org/2000/svg">
        <path d="M15.75 0.5C20.0301 0.5 23.5 3.96989 23.5 8.25C23.5 12.5301 20.0301 16 15.75 16C14.9252 16 14.1278 15.8722 13.3848 15.6348L13.0947 15.542L11.3184 17.3184C11.2025 17.4342 11.0442 17.5 10.875 17.5H8.5V19.875C8.5 20.2223 8.2223 20.5 7.875 20.5H5.5V22.875C5.5 23.2223 5.2223 23.5 4.875 23.5H1.125C0.777705 23.5 0.5 23.2223 0.5 22.875V19.125C0.5 18.9558 0.565757 18.7975 0.681641 18.6816L8.45801 10.9053L8.36523 10.6152C8.12781 9.87218 8 9.07484 8 8.25C8 3.96989 11.4699 0.5 15.75 0.5ZM17.625 4C16.3129 4 15.25 5.06292 15.25 6.375C15.25 7.68708 16.3129 8.75 17.625 8.75C18.9371 8.75 20 7.68708 20 6.375C20 5.06292 18.9371 4 17.625 4Z" stroke="white" stroke-opacity="0.75"/>
    </symbol>

    <symbol id="web-ico_big-set" width="32" height="32" viewBox="0 0 32 32" fill="none" xmlns="http://www.w3.org/2000/svg">
        <path d="M28.4444 4.57143H8.88889C8.88889 2.05 10.4833 0 12.4444 0H28.4444C30.4056 0 32 2.05 32 4.57143V18.2857C32 20.8071 30.4056 22.8571 28.4444 22.8571H25.7778V18.2857H28.4444V4.57143ZM0 13.7143C0 11.1929 1.59444 9.14286 3.55556 9.14286H19.5556C21.5167 9.14286 23.1111 11.1929 23.1111 13.7143V27.4286C23.1111 29.95 21.5167 32 19.5556 32H3.55556C1.59444 32 0 29.95 0 27.4286V13.7143ZM3.55556 16.5714C3.55556 17.5214 4.15 18.2857 4.88889 18.2857H18.2222C18.9611 18.2857 19.5556 17.5214 19.5556 16.5714C19.5556 15.6214 18.9611 14.8571 18.2222 14.8571H4.88889C4.15 14.8571 3.55556 15.6214 3.55556 16.5714Z" fill="white" fill-opacity="0.85"/>
    </symbol>

    <symbol id="discord-ico_big-set" width="32" height="32" viewBox="0 0 32 32" fill="none" xmlns="http://www.w3.org/2000/svg">
        <path d="M28.4444 4.57143H8.88889C8.88889 2.05 10.4833 0 12.4444 0H28.4444C30.4056 0 32 2.05 32 4.57143V18.2857C32 20.8071 30.4056 22.8571 28.4444 22.8571H25.7778V18.2857H28.4444V4.57143ZM0 13.7143C0 11.1929 1.59444 9.14286 3.55556 9.14286H19.5556C21.5167 9.14286 23.1111 11.1929 23.1111 13.7143V27.4286C23.1111 29.95 21.5167 32 19.5556 32H3.55556C1.59444 32 0 29.95 0 27.4286V13.7143ZM3.55556 16.5714C3.55556 17.5214 4.15 18.2857 4.88889 18.2857H18.2222C18.9611 18.2857 19.5556 17.5214 19.5556 16.5714C19.5556 15.6214 18.9611 14.8571 18.2222 14.8571H4.88889C4.15 14.8571 3.55556 15.6214 3.55556 16.5714Z" fill="white" fill-opacity="0.85"/>
    </symbol>

    <symbol id="github-ico_big-set" width="32" height="32" viewBox="0 0 32 32" fill="none" xmlns="http://www.w3.org/2000/svg">
        <path d="M10.7032 25.7664C10.7032 25.8987 10.5548 26.0046 10.3677 26.0046C10.1548 26.0244 10.0065 25.9185 10.0065 25.7664C10.0065 25.634 10.1548 25.5281 10.3419 25.5281C10.5355 25.5083 10.7032 25.6142 10.7032 25.7664ZM8.69677 25.4686C8.65161 25.6009 8.78065 25.7531 8.97419 25.7928C9.14194 25.859 9.33548 25.7928 9.37419 25.6605C9.4129 25.5281 9.29032 25.376 9.09677 25.3164C8.92903 25.2701 8.74194 25.3363 8.69677 25.4686ZM11.5484 25.3561C11.3613 25.4024 11.2323 25.5281 11.2516 25.6803C11.271 25.8127 11.4387 25.8987 11.6323 25.8524C11.8194 25.8061 11.9484 25.6803 11.929 25.548C11.9097 25.4223 11.7355 25.3363 11.5484 25.3561ZM15.7935 0C6.84516 0 0 6.96763 0 16.1453C0 23.4835 4.50323 29.763 10.9355 31.973C11.7613 32.1252 12.0516 31.6025 12.0516 31.1724C12.0516 30.7621 12.0323 28.4991 12.0323 27.1096C12.0323 27.1096 7.51613 28.1021 6.56774 25.1377C6.56774 25.1377 5.83226 23.2122 4.77419 22.7159C4.77419 22.7159 3.29677 21.6771 4.87742 21.6969C4.87742 21.6969 6.48387 21.8293 7.36774 23.4041C8.78064 25.9582 11.1484 25.2238 12.071 24.787C12.2194 23.7283 12.6387 22.9939 13.1032 22.5571C9.49677 22.1469 5.85806 21.6109 5.85806 15.2454C5.85806 13.4258 6.34839 12.5126 7.38065 11.348C7.2129 10.9179 6.66452 9.14461 7.54839 6.85515C8.89677 6.42505 12 8.64172 12 8.64172C13.2903 8.27117 14.6774 8.07928 16.0516 8.07928C17.4258 8.07928 18.8129 8.27117 20.1032 8.64172C20.1032 8.64172 23.2065 6.41843 24.5548 6.85515C25.4387 9.15122 24.8903 10.9179 24.7226 11.348C25.7548 12.5192 26.3871 13.4324 26.3871 15.2454C26.3871 21.6308 22.5871 22.1403 18.9806 22.5571C19.5742 23.0799 20.0774 24.0724 20.0774 25.6274C20.0774 27.8573 20.0581 30.6166 20.0581 31.1592C20.0581 31.5893 20.3548 32.112 21.1742 31.9598C27.6258 29.763 32 23.4835 32 16.1453C32 6.96763 24.7419 0 15.7935 0ZM6.27097 22.8218C6.1871 22.888 6.20645 23.0402 6.31613 23.1659C6.41935 23.2718 6.56774 23.3181 6.65161 23.2321C6.73548 23.1659 6.71613 23.0137 6.60645 22.888C6.50323 22.7821 6.35484 22.7358 6.27097 22.8218ZM5.57419 22.2858C5.52903 22.3719 5.59355 22.4777 5.72258 22.5439C5.82581 22.6101 5.95484 22.5902 6 22.4976C6.04516 22.4116 5.98064 22.3057 5.85161 22.2395C5.72258 22.1998 5.61935 22.2197 5.57419 22.2858ZM7.66452 24.6415C7.56129 24.7275 7.6 24.926 7.74839 25.0517C7.89677 25.2039 8.08387 25.2238 8.16774 25.1179C8.25161 25.0319 8.2129 24.8334 8.08387 24.7076C7.94194 24.5555 7.74839 24.5356 7.66452 24.6415ZM6.92903 23.6688C6.82581 23.735 6.82581 23.907 6.92903 24.0592C7.03226 24.2114 7.20645 24.2775 7.29032 24.2114C7.39355 24.1254 7.39355 23.9533 7.29032 23.8011C7.2 23.6489 7.03226 23.5828 6.92903 23.6688Z" fill="white" fill-opacity="0.85"/>
    </symbol>

    <symbol id="steam-ico_big-set" width="32" height="32" viewBox="0 0 32 32" fill="none" xmlns="http://www.w3.org/2000/svg">
        <path d="M32 16C32 24.8387 24.8258 32 15.9742 32C8.63226 32 2.45161 27.0774 0.554839 20.3613L6.69677 22.8968C7.10968 24.9677 8.94839 26.5355 11.1419 26.5355C13.671 26.5355 15.7806 24.4452 15.671 21.7935L21.1226 17.9097C24.4839 17.9935 27.3032 15.271 27.3032 11.8774C27.3032 8.54839 24.5935 5.84516 21.2581 5.84516C17.9226 5.84516 15.2129 8.55484 15.2129 11.8774V11.9548L11.3935 17.4839C10.3935 17.4258 9.4129 17.7032 8.5871 18.2645L0 14.7161C0.658064 6.47742 7.55484 0 15.9742 0C24.8258 0 32 7.16129 32 16ZM10.0452 24.2774L8.07742 23.4645C8.43906 24.2153 9.0634 24.8075 9.83226 25.129C11.5677 25.8516 13.5613 25.0258 14.2839 23.2968C14.6323 22.4581 14.6387 21.5355 14.2903 20.6968C13.9419 19.8581 13.2903 19.2 12.4516 18.8516C11.6194 18.5032 10.729 18.5161 9.94194 18.8129L11.9742 19.6516C13.2516 20.1806 13.8581 21.6452 13.3226 22.9226C12.7871 24.2064 11.3226 24.8064 10.0452 24.2774ZM21.2581 15.8968C19.0387 15.8968 17.2323 14.0903 17.2323 11.8774C17.2323 9.66452 19.0387 7.85806 21.2581 7.85806C23.4774 7.85806 25.2839 9.66452 25.2839 11.8774C25.2839 14.0903 23.4839 15.8968 21.2581 15.8968ZM21.2645 14.8903C22.9355 14.8903 24.2903 13.5355 24.2903 11.871C24.2903 10.2 22.9355 8.85161 21.2645 8.85161C19.5935 8.85161 18.2387 10.2065 18.2387 11.871C18.2452 13.5355 19.6 14.8903 21.2645 14.8903Z" fill="white" fill-opacity="0.85"/>
    </symbol>

    <symbol id="telegram-ico_big-set" width="32" height="32" viewBox="0 0 32 32" fill="none" xmlns="http://www.w3.org/2000/svg">
        <path d="M32 16C32 24.8387 24.8258 32 15.9742 32C8.63226 32 2.45161 27.0774 0.554839 20.3613L6.69677 22.8968C7.10968 24.9677 8.94839 26.5355 11.1419 26.5355C13.671 26.5355 15.7806 24.4452 15.671 21.7935L21.1226 17.9097C24.4839 17.9935 27.3032 15.271 27.3032 11.8774C27.3032 8.54839 24.5935 5.84516 21.2581 5.84516C17.9226 5.84516 15.2129 8.55484 15.2129 11.8774V11.9548L11.3935 17.4839C10.3935 17.4258 9.4129 17.7032 8.5871 18.2645L0 14.7161C0.658064 6.47742 7.55484 0 15.9742 0C24.8258 0 32 7.16129 32 16ZM10.0452 24.2774L8.07742 23.4645C8.43906 24.2153 9.0634 24.8075 9.83226 25.129C11.5677 25.8516 13.5613 25.0258 14.2839 23.2968C14.6323 22.4581 14.6387 21.5355 14.2903 20.6968C13.9419 19.8581 13.2903 19.2 12.4516 18.8516C11.6194 18.5032 10.729 18.5161 9.94194 18.8129L11.9742 19.6516C13.2516 20.1806 13.8581 21.6452 13.3226 22.9226C12.7871 24.2064 11.3226 24.8064 10.0452 24.2774ZM21.2581 15.8968C19.0387 15.8968 17.2323 14.0903 17.2323 11.8774C17.2323 9.66452 19.0387 7.85806 21.2581 7.85806C23.4774 7.85806 25.2839 9.66452 25.2839 11.8774C25.2839 14.0903 23.4839 15.8968 21.2581 15.8968ZM21.2645 14.8903C22.9355 14.8903 24.2903 13.5355 24.2903 11.871C24.2903 10.2 22.9355 8.85161 21.2645 8.85161C19.5935 8.85161 18.2387 10.2065 18.2387 11.871C18.2452 13.5355 19.6 14.8903 21.2645 14.8903Z" fill="white" fill-opacity="0.85"/>
    </symbol>

    <symbol id="youtube-ico_big-set" width="32" height="32" viewBox="0 0 32 32" fill="none" xmlns="http://www.w3.org/2000/svg">
        <path d="M32 16C32 24.8387 24.8258 32 15.9742 32C8.63226 32 2.45161 27.0774 0.554839 20.3613L6.69677 22.8968C7.10968 24.9677 8.94839 26.5355 11.1419 26.5355C13.671 26.5355 15.7806 24.4452 15.671 21.7935L21.1226 17.9097C24.4839 17.9935 27.3032 15.271 27.3032 11.8774C27.3032 8.54839 24.5935 5.84516 21.2581 5.84516C17.9226 5.84516 15.2129 8.55484 15.2129 11.8774V11.9548L11.3935 17.4839C10.3935 17.4258 9.4129 17.7032 8.5871 18.2645L0 14.7161C0.658064 6.47742 7.55484 0 15.9742 0C24.8258 0 32 7.16129 32 16ZM10.0452 24.2774L8.07742 23.4645C8.43906 24.2153 9.0634 24.8075 9.83226 25.129C11.5677 25.8516 13.5613 25.0258 14.2839 23.2968C14.6323 22.4581 14.6387 21.5355 14.2903 20.6968C13.9419 19.8581 13.2903 19.2 12.4516 18.8516C11.6194 18.5032 10.729 18.5161 9.94194 18.8129L11.9742 19.6516C13.2516 20.1806 13.8581 21.6452 13.3226 22.9226C12.7871 24.2064 11.3226 24.8064 10.0452 24.2774ZM21.2581 15.8968C19.0387 15.8968 17.2323 14.0903 17.2323 11.8774C17.2323 9.66452 19.0387 7.85806 21.2581 7.85806C23.4774 7.85806 25.2839 9.66452 25.2839 11.8774C25.2839 14.0903 23.4839 15.8968 21.2581 15.8968ZM21.2645 14.8903C22.9355 14.8903 24.2903 13.5355 24.2903 11.871C24.2903 10.2 22.9355 8.85161 21.2645 8.85161C19.5935 8.85161 18.2387 10.2065 18.2387 11.871C18.2452 13.5355 19.6 14.8903 21.2645 14.8903Z" fill="white" fill-opacity="0.85"/>
    </symbol>

<!--[medium] set of icons in the range 24-20px-->
    <symbol id="home_mediumSet" width="24" height="24" viewBox="0 0 24 24" fill="none" xmlns="http://www.w3.org/2000/svg">
        <path d="M12.0156 1C12.0575 1 12.1019 1.00734 12.1396 1.02051C12.1725 1.032 12.1926 1.04477 12.2041 1.05469L22.832 11.5605L22.834 11.5625C23.0042 11.73 23.0044 11.8214 22.999 11.876L22.9941 11.9248V11.9746C22.994 12.1475 22.9296 12.2847 22.8506 12.3721C22.7698 12.4612 22.6956 12.4785 22.6602 12.4785H20.3223L20.3262 13.4824L20.3555 20.9902C20.3553 21.0727 20.3501 21.1634 20.3398 21.2676L20.335 21.3164V22.125C20.335 22.7217 19.9297 22.9997 19.668 23H18.958C18.9598 23.0001 18.962 23.0007 18.9648 23.001L18.874 22.9912L18.7832 22.998C18.7715 22.999 18.7532 22.999 18.6885 22.999L17.3369 22.9951H16.333C16.0713 22.9948 15.6662 22.7175 15.666 22.1211V17.9961C15.6658 16.7281 14.7297 15.4973 13.333 15.4971H10.665C9.26825 15.4972 8.33222 16.728 8.33203 17.9961V22.1211C8.33184 22.7178 7.92571 22.9951 7.66406 22.9951H5.33496C5.31615 22.9951 5.29049 22.9934 5.22168 22.9883L5.1377 22.9824L5.05371 22.9902C5.02685 22.9928 5.01339 22.9943 5.00195 22.9951H4.33008C4.06842 22.995 3.66327 22.7176 3.66309 22.1211V16.8262L3.66699 16.79V12.4736H1.33398C1.26522 12.4736 1.19759 12.4478 1.13379 12.376C1.06662 12.3003 1.00004 12.1648 1 11.9697C1 11.7741 1.04844 11.6447 1.15527 11.5205L11.7988 1.08887L11.8232 1.06543L11.8457 1.03906C11.8614 1.02141 11.8711 1.01502 11.873 1.01367C11.8738 1.01316 11.8745 1.01255 11.877 1.01172C11.8862 1.00865 11.9195 1 12.0156 1Z" stroke="white" stroke-opacity="0.85" stroke-width="2"/>
    </symbol>

    <symbol id="chat_medium-set" width="24" height="24" viewBox="0 0 24 24" fill="none" xmlns="http://www.w3.org/2000/svg">
        <path d="M20.001 4C26.1474 4 31 8.60757 31 14.1406C30.9999 19.6736 26.1473 24.2803 20.001 24.2803H19.7617C18.2434 24.2504 16.806 23.9414 15.5039 23.4033L14.9453 23.1719L14.4805 23.5596C13.9801 23.9776 13.1324 24.5713 12.1328 25.0703C11.1932 25.5356 10.1486 25.9049 9.13965 25.9834C9.19756 25.9077 9.2632 25.8217 9.32812 25.7334L9.33496 25.7246C9.54727 25.4287 9.83522 24.9925 10.1191 24.4502L10.1201 24.4512C10.6316 23.4809 11.135 22.1759 11.2363 20.6836L11.2617 20.3057L11.0303 20.0059C9.74979 18.3426 9.00201 16.321 9.00195 14.1406C9.00195 8.60764 13.8547 4.00012 20.001 4ZM14.002 11.4268C13.2927 11.4268 12.6438 11.7493 12.1885 12.2695C11.7369 12.7856 11.502 13.4607 11.502 14.1406C11.502 14.8203 11.737 15.4948 12.1885 16.0107C12.6438 16.5311 13.2926 16.8545 14.002 16.8545C14.7111 16.8545 15.3592 16.5309 15.8145 16.0107C16.266 15.4947 16.5019 14.8204 16.502 14.1406C16.502 13.4607 16.2661 12.7856 15.8145 12.2695C15.3592 11.7495 14.711 11.4268 14.002 11.4268ZM20.001 11.4268C19.2919 11.4268 18.6437 11.7495 18.1885 12.2695C17.7369 12.7856 17.501 13.4607 17.501 14.1406C17.501 14.8204 17.7369 15.4947 18.1885 16.0107C18.6438 16.5309 19.2918 16.8544 20.001 16.8545C20.7103 16.8545 21.3591 16.5311 21.8145 16.0107C22.2659 15.4948 22.5009 14.8204 22.501 14.1406C22.501 13.4607 22.2661 12.7856 21.8145 12.2695C21.3591 11.7493 20.7102 11.4268 20.001 11.4268ZM26.001 11.4268C25.2917 11.4268 24.6428 11.7493 24.1875 12.2695C23.7359 12.7856 23.501 13.4607 23.501 14.1406C23.501 14.8204 23.736 15.4948 24.1875 16.0107C24.6428 16.5311 25.2917 16.8545 26.001 16.8545C26.7101 16.8544 27.3582 16.5309 27.8135 16.0107C28.265 15.4948 28.4999 14.8204 28.5 14.1406C28.5 13.4607 28.2651 12.7856 27.8135 12.2695C27.3582 11.7495 26.71 11.4269 26.001 11.4268Z" stroke="white" stroke-opacity="0.85" stroke-width="2"/>
    </symbol>

    <symbol id="shield_medium-set" width="24" height="24" viewBox="0 0 24 24" fill="none" xmlns="http://www.w3.org/2000/svg">
        <path d="M11.995 0C12.225 0 12.455 0.0510606 12.665 0.148075L22.085 4.22781C23.185 4.70267 24.005 5.81068 24 7.14847C23.975 12.2137 21.935 21.4811 13.32 25.6936C12.485 26.1021 11.515 26.1021 10.68 25.6936C2.06002 21.4811 0.0250227 12.2137 2.27424e-05 7.14847C-0.00497725 5.81068 0.815021 4.70267 1.91502 4.22781L11.33 0.148075C11.54 0.0510606 11.765 0 11.995 0Z" fill="white" fill-opacity="0.25"/>
        <path d="M11.9951 1C12.0784 1.00002 12.1659 1.01862 12.2461 1.05566L12.2676 1.06543L21.6875 5.14551H21.6885C22.4452 5.4722 23.0029 6.23298 23 7.14355C22.9761 11.9795 21.0502 20.5569 13.2559 24.6055L12.8809 24.7949C12.3231 25.0678 11.6769 25.0678 11.1191 24.7949L10.7432 24.6055C3.19257 20.6854 1.15145 12.5199 1.00781 7.61523L1 7.14355C0.997079 6.23298 1.55476 5.4722 2.31152 5.14551H2.3125L11.7275 1.06543L11.749 1.05566C11.8322 1.01723 11.915 1 11.9951 1Z" stroke="white" stroke-opacity="0.85" stroke-width="2"/>
    </symbol>

    <symbol id="joystick_medium-set" width="24" height="24" viewBox="0 0 24 24" fill="none" xmlns="http://www.w3.org/2000/svg">
        <path d="M12 1H28C34.0727 1 39 5.92728 39 12C39 18.0727 34.0727 23 28 23H12C5.92728 23 1 18.0727 1 12C1 5.92728 5.92728 1 12 1ZM27 11.5C26.0717 11.5 25.1818 11.869 24.5254 12.5254C23.869 13.1818 23.5 14.0717 23.5 15C23.5 15.9283 23.869 16.8182 24.5254 17.4746C25.1818 18.131 26.0717 18.5 27 18.5C27.9283 18.5 28.8182 18.131 29.4746 17.4746C30.131 16.8182 30.5 15.9283 30.5 15C30.5 14.0717 30.131 13.1818 29.4746 12.5254C28.8182 11.869 27.9283 11.5 27 11.5ZM12 6C10.6165 6 9.5 7.11647 9.5 8.5V9.5H8.5C7.11647 9.5 6 10.6165 6 12C6 13.3835 7.11647 14.5 8.5 14.5H9.5V15.5C9.5 16.8835 10.6165 18 12 18C13.3835 18 14.5 16.8835 14.5 15.5V14.5H15.5C16.8835 14.5 18 13.3835 18 12C18 10.6165 16.8835 9.5 15.5 9.5H14.5V8.5C14.5 7.11647 13.3835 6 12 6ZM31 5.5C30.0717 5.5 29.1818 5.86901 28.5254 6.52539C27.869 7.18177 27.5 8.07174 27.5 9C27.5 9.92826 27.869 10.8182 28.5254 11.4746C29.1818 12.131 30.0717 12.5 31 12.5C31.9283 12.5 32.8182 12.131 33.4746 11.4746C34.131 10.8182 34.5 9.92825 34.5 9C34.5 8.07174 34.131 7.18177 33.4746 6.52539C32.8182 5.86901 31.9283 5.5 31 5.5Z" stroke="white" stroke-opacity="0.85" stroke-width="2"/>
    </symbol>

    <symbol id="community_medium-set" width="24" height="24" viewBox="0 0 24 24" fill="none" xmlns="http://www.w3.org/2000/svg">
        <path d="M16.4287 16H23.5713C23.8864 16 24.181 16.024 24.458 16.0762L24.4678 16.0781C26.4062 16.4226 28.0276 17.8645 28.6865 19.8193L28.6875 19.8242C28.8913 20.4187 29 21.0682 29 21.75C29 22.491 28.4471 22.9998 27.8574 23H12.1426C11.5529 22.9998 11 22.491 11 21.75C11 21.0682 11.1087 20.4187 11.3125 19.8242L11.3135 19.8193C11.9724 17.8645 13.5938 16.4226 15.5322 16.0781L15.542 16.0762C15.819 16.024 16.1136 16 16.4287 16ZM4.75879 13H10.4492C8.65506 14.3397 7.29775 16.2645 6.62305 18.5H2.38379C1.66255 18.4999 1.0001 17.8718 1 16.9971C1 14.7466 2.73155 13.0001 4.75879 13ZM35.2412 13C37.2696 13.0001 39 14.7385 39 16.9971C38.9999 17.8762 38.3333 18.4999 37.6162 18.5H33.3857C32.711 16.2644 31.3538 14.3397 29.5596 13H35.2412ZM20 1C21.2341 1 22.4281 1.51457 23.3164 2.44727C24.2062 3.38161 24.7139 4.65865 24.7139 6C24.7139 7.34135 24.2062 8.61839 23.3164 9.55273C22.4281 10.4854 21.2341 11 20 11C18.7659 11 17.5719 10.4854 16.6836 9.55273C15.7938 8.61839 15.2861 7.34135 15.2861 6C15.2861 4.65865 15.7938 3.38161 16.6836 2.44727C17.5719 1.51457 18.7659 1 20 1ZM7.125 1C7.54952 1 7.97112 1.08793 8.36621 1.25977C8.76142 1.43166 9.12417 1.68497 9.43164 2.00781C9.73905 2.33065 9.98541 2.71652 10.1543 3.14453C10.3233 3.57282 10.4111 4.03378 10.4111 4.5C10.4111 4.96622 10.3233 5.42718 10.1543 5.85547C9.98541 6.28348 9.73905 6.66935 9.43164 6.99219C9.12417 7.31503 8.76142 7.56834 8.36621 7.74023C7.97112 7.91207 7.54952 8 7.125 8L6.96582 7.99609C6.59537 7.97694 6.22945 7.89057 5.88379 7.74023C5.48858 7.56834 5.12583 7.31503 4.81836 6.99219C4.51095 6.66935 4.26459 6.28348 4.0957 5.85547C3.92675 5.42718 3.83887 4.96622 3.83887 4.5C3.83887 4.03378 3.92675 3.57282 4.0957 3.14453C4.26459 2.71652 4.51095 2.33065 4.81836 2.00781C5.12583 1.68497 5.48858 1.43166 5.88379 1.25977C6.27888 1.08793 6.70048 1 7.125 1ZM32.8574 1C33.2818 1.00004 33.7036 1.08797 34.0986 1.25977C34.4937 1.43164 34.8557 1.68509 35.1631 2.00781C35.4706 2.33072 35.7178 2.71638 35.8867 3.14453C36.0557 3.57282 36.1426 4.03378 36.1426 4.5C36.1426 4.96622 36.0557 5.42718 35.8867 5.85547C35.7178 6.28362 35.4706 6.66927 35.1631 6.99219C34.8557 7.31491 34.4937 7.56836 34.0986 7.74023C33.7036 7.91203 33.2818 7.99996 32.8574 8C32.433 8 32.0112 7.91202 31.6162 7.74023C31.221 7.56834 30.8583 7.31505 30.5508 6.99219C30.2433 6.66934 29.997 6.2835 29.8281 5.85547C29.6592 5.42718 29.5713 4.96622 29.5713 4.5C29.5713 4.03378 29.6592 3.57282 29.8281 3.14453C29.997 2.7165 30.2433 2.33066 30.5508 2.00781C30.8583 1.68495 31.221 1.43166 31.6162 1.25977C32.0112 1.08798 32.433 1 32.8574 1Z" stroke="white" stroke-opacity="0.85" stroke-width="2"/>
    </symbol>

    <symbol id="black-list_medium-set" width="24" height="24" viewBox="0 0 24 24" fill="none" xmlns="http://www.w3.org/2000/svg">
        <path d="M2.80078 1C2.82952 1.00003 2.86237 1.00806 2.89551 1.03125L2.92871 1.05957L10.0781 8.51172L11.7588 10.2627L11.7998 7.83594C11.8412 5.39493 13.7441 3.49707 16 3.49707C18.2798 3.49707 20.2002 5.43761 20.2002 7.91309C20.2 10.3618 18.3207 12.2867 16.0713 12.3281L13.7842 12.3711L15.3682 14.0205L29.3232 28.5596L29.3271 28.5645C29.3676 28.6062 29.3956 28.6682 29.3955 28.7461C29.3954 28.8249 29.3667 28.8955 29.3203 28.9443C29.2803 28.9865 29.2374 29 29.1992 29C29.1609 29 29.1151 28.986 29.0713 28.9404L2.6748 1.44922C2.63194 1.4041 2.6032 1.33665 2.60352 1.25586C2.60394 1.17484 2.63361 1.1042 2.67969 1.05566C2.71972 1.01353 2.76264 1 2.80078 1ZM19.7637 25.6592H9.59961C9.30496 25.659 9.00005 25.4011 9 24.9932V24.1602C9 21.5109 10.3395 19.2004 12.3281 17.915L19.7637 25.6592ZM6.40039 17.6611C6.42484 17.6611 6.44925 17.6618 6.47363 17.6621C5.28896 19.5301 4.59961 21.765 4.59961 24.1602V24.9932C4.59961 25.2189 4.61615 25.441 4.64355 25.6592H1.59961C1.30496 25.659 1.00005 25.4011 1 24.9932V23.3271L1.00684 23.0312C1.15384 20.0047 3.54776 17.6611 6.40039 17.6611ZM25.5996 17.6611C28.5444 17.6611 31 20.1591 31 23.3271V23.877L25.0586 17.6885C25.2366 17.6699 25.4171 17.6611 25.5996 17.6611ZM6.61328 11.9639C6.13905 12.4532 5.49694 12.7451 4.7998 12.7451C3.40022 12.745 2.20042 11.5548 2.2002 9.99609C2.2002 9.25894 2.47303 8.59778 2.91113 8.1084L6.61328 11.9639ZM27.2002 7.24609C28.5999 7.2462 29.7998 8.43719 29.7998 9.99609C29.7996 11.5548 28.5998 12.745 27.2002 12.7451C25.8005 12.7451 24.5998 11.5549 24.5996 9.99609C24.5996 8.43712 25.8004 7.24609 27.2002 7.24609Z" stroke="white" stroke-opacity="0.85" stroke-width="2"/>
    </symbol>

    <symbol id="profile-not-fill_medium-set" width="24" height="24" viewBox="0 0 24 24" fill="none" xmlns="http://www.w3.org/2000/svg">    
        <path d="M12 1C14.9174 1 17.7154 2.15878 19.7783 4.22168C21.8412 6.28458 23 9.08262 23 12C23 14.9174 21.8412 17.7154 19.7783 19.7783C19.3325 20.2241 18.8501 20.6246 18.3418 20.9834L18.1602 20.0693C17.7265 17.8892 15.804 16.25 13.5 16.25H10.5C8.19599 16.25 6.2735 17.8892 5.83984 20.0693L5.70508 20.7451L6.29004 21.1113C7.94861 22.1498 9.90325 22.75 12 22.75C13.9913 22.75 15.8551 22.2086 17.4551 21.2637H17.9258C16.1697 22.3869 14.1172 23 12 23C9.08262 23 6.28458 21.8412 4.22168 19.7783C2.15878 17.7154 1 14.9174 1 12C1 9.08262 2.15878 6.28458 4.22168 4.22168C6.28458 2.15878 9.08262 1 12 1ZM12 1.25C6.06178 1.25 1.25 6.06178 1.25 12C1.25 14.8789 2.38293 17.4902 4.2207 19.4209L5.28613 20.54L5.87109 19.1094C6.61819 17.2832 8.41254 16 10.5 16H13.5C15.5875 16 17.3818 17.2832 18.1289 19.1094L18.7139 20.54L19.7793 19.4209C21.6171 17.4902 22.75 14.8789 22.75 12C22.75 6.06178 17.9382 1.25 12 1.25ZM12 6.25C12.8288 6.25 13.6239 6.57899 14.21 7.16504C14.796 7.75109 15.125 8.5462 15.125 9.375C15.125 10.2038 14.796 10.9989 14.21 11.585C13.6239 12.171 12.8288 12.5 12 12.5C11.1712 12.5 10.3761 12.171 9.79004 11.585C9.20399 10.9989 8.875 10.2038 8.875 9.375C8.875 8.5462 9.20399 7.75109 9.79004 7.16504C10.3761 6.57899 11.1712 6.25 12 6.25ZM12 6.5C11.2375 6.5 10.506 6.80263 9.9668 7.3418C9.42763 7.88096 9.125 8.6125 9.125 9.375C9.125 10.1375 9.42763 10.869 9.9668 11.4082C10.506 11.9474 11.2375 12.25 12 12.25C12.7625 12.25 13.494 11.9474 14.0332 11.4082C14.5724 10.869 14.875 10.1375 14.875 9.375C14.875 8.6125 14.5724 7.88096 14.0332 7.3418C13.494 6.80263 12.7625 6.5 12 6.5Z" stroke="white" stroke-opacity="0.85" stroke-width="2"/>
    </symbol>

    <symbol id="profile-fill_medium-set" width="24" height="24" viewBox="0 0 24 24" fill="none" xmlns="http://www.w3.org/2000/svg">
        <path d="M18.7031 18.0094C17.6672 16.2094 15.7219 15 13.5 15H10.5C8.27812 15 6.33281 16.2094 5.29688 18.0094C6.94688 19.8469 9.3375 21 12 21C14.6625 21 17.0531 19.8422 18.7031 18.0094ZM0 12C0 8.8174 1.26428 5.76516 3.51472 3.51472C5.76516 1.26428 8.8174 0 12 0C15.1826 0 18.2348 1.26428 20.4853 3.51472C22.7357 5.76516 24 8.8174 24 12C24 15.1826 22.7357 18.2348 20.4853 20.4853C18.2348 22.7357 15.1826 24 12 24C8.8174 24 5.76516 22.7357 3.51472 20.4853C1.26428 18.2348 0 15.1826 0 12ZM12 12.75C12.8951 12.75 13.7535 12.3944 14.3865 11.7615C15.0194 11.1285 15.375 10.2701 15.375 9.375C15.375 8.47989 15.0194 7.62145 14.3865 6.98851C13.7535 6.35558 12.8951 6 12 6C11.1049 6 10.2465 6.35558 9.61351 6.98851C8.98058 7.62145 8.625 8.47989 8.625 9.375C8.625 10.2701 8.98058 11.1285 9.61351 11.7615C10.2465 12.3944 11.1049 12.75 12 12.75Z" fill="white" fill-opacity="0.85"/>
    </symbol>

    <symbol id="exit_medium-set" width="24" height="24" viewBox="0 0 24 24" fill="none" xmlns="http://www.w3.org/2000/svg">
        <path d="M5.25 1H8.75C9.18516 1 9.50074 1.33749 9.50098 1.71387C9.50098 2.09041 9.18532 2.42871 8.75 2.42871H5.25C3.74949 2.42885 2.50015 3.62292 2.5 5.14258V18.8574C2.50015 20.3771 3.74949 21.5712 5.25 21.5713H8.75C9.18532 21.5713 9.50098 21.9096 9.50098 22.2861C9.50074 22.6625 9.18516 23 8.75 23H5.25C2.88434 22.9999 1.00015 21.1248 1 18.8574V5.14258C1.00015 2.87517 2.88434 1.00014 5.25 1ZM18.709 4.6416C19.0038 4.35279 19.4923 4.35279 19.7871 4.6416L26.7871 11.498C27.0704 11.7756 27.0704 12.2186 26.7871 12.4961L26.4873 12.79V12.7949L19.7871 19.3584C19.4923 19.6472 19.0038 19.6472 18.709 19.3584C18.426 19.0809 18.4258 18.6378 18.709 18.3604L22.7236 14.4287L24.4736 12.7139H10.501C10.0657 12.7139 9.75 12.3765 9.75 12C9.75 11.6235 10.0657 11.2861 10.501 11.2861H24.4736L22.7236 9.57129L18.709 5.63965C18.4258 5.36225 18.426 4.91914 18.709 4.6416Z" stroke="white" stroke-opacity="0.85" stroke-width="2"/>
    </symbol>

    <symbol id="vertical-file_medium-set" width="18" height="24" viewBox="0 0 18 24" fill="none" xmlns="http://www.w3.org/2000/svg">
        <path d="M3 0.5H10V6C10 7.10583 10.8942 8 12 8H17.5V21C17.5 22.3785 16.3785 23.5 15 23.5H3C1.62145 23.5 0.5 22.3785 0.5 21V3C0.5 1.62145 1.62145 0.5 3 0.5ZM5.25 17.5C4.56136 17.5 4 18.0614 4 18.75C4 19.4386 4.56136 20 5.25 20H12.75C13.4386 20 14 19.4386 14 18.75C14 18.0614 13.4386 17.5 12.75 17.5H5.25ZM5.25 14.5C4.56136 14.5 4 15.0614 4 15.75C4 16.4386 4.56136 17 5.25 17H12.75C13.4386 17 14 16.4386 14 15.75C14 15.0614 13.4386 14.5 12.75 14.5H5.25ZM5.25 11.5C4.56136 11.5 4 12.0614 4 12.75C4 13.4386 4.56136 14 5.25 14H12.75C13.4386 14 14 13.4386 14 12.75C14 12.0614 13.4386 11.5 12.75 11.5H5.25ZM16.793 5.5H12.5V1.20703L16.793 5.5Z" stroke="white" stroke-opacity="0.85"/>
    </symbol>

    <symbol id="burger-points_medium-set" width="28" height="7" viewBox="0 0 28 7" fill="none" xmlns="http://www.w3.org/2000/svg">
        <path d="M3.62988 0.5C4.46539 0.500065 5.26309 0.820328 5.84863 1.38477C6.43365 1.94889 6.75879 2.71034 6.75879 3.5C6.75879 4.28966 6.43365 5.05111 5.84863 5.61523C5.26309 6.17967 4.46539 6.49994 3.62988 6.5C2.79417 6.5 1.99578 6.17988 1.41016 5.61523C0.825135 5.05111 0.5 4.28966 0.5 3.5L0.503906 3.35254C0.541717 2.61611 0.861645 1.91369 1.41016 1.38477C1.99578 0.820125 2.79417 0.5 3.62988 0.5ZM14 0.5C14.8358 0.5 15.6341 0.820046 16.2197 1.38477C16.8047 1.94889 17.1299 2.71034 17.1299 3.5C17.1299 4.28966 16.8047 5.05111 16.2197 5.61523C15.6341 6.17995 14.8358 6.5 14 6.5C13.1642 6.5 12.3659 6.17995 11.7803 5.61523C11.1953 5.05111 10.8701 4.28966 10.8701 3.5C10.8701 2.71034 11.1953 1.94889 11.7803 1.38477C12.3659 0.820046 13.1642 0.5 14 0.5ZM24.3701 0.5C25.2058 0.5 26.0042 0.820125 26.5898 1.38477C27.1749 1.94889 27.5 2.71034 27.5 3.5C27.5 4.28966 27.1749 5.05111 26.5898 5.61523C26.0042 6.17988 25.2058 6.5 24.3701 6.5C23.5346 6.49994 22.7369 6.17967 22.1514 5.61523C21.5663 5.05111 21.2412 4.28966 21.2412 3.5C21.2412 2.71034 21.5663 1.94889 22.1514 1.38477C22.7369 0.820328 23.5346 0.500064 24.3701 0.5Z" stroke="white" stroke-opacity="0.75"/>
    </symbol>

    <symbol id="key_medium-set" width="24" height="24" viewBox="0 0 24 24" fill="none" xmlns="http://www.w3.org/2000/svg">
        <path d="M15.75 0.5C20.0301 0.5 23.5 3.96989 23.5 8.25C23.5 12.5301 20.0301 16 15.75 16C14.9252 16 14.1278 15.8722 13.3848 15.6348L13.0947 15.542L11.3184 17.3184C11.2025 17.4342 11.0442 17.5 10.875 17.5H8.5V19.875C8.5 20.2223 8.2223 20.5 7.875 20.5H5.5V22.875C5.5 23.2223 5.2223 23.5 4.875 23.5H1.125C0.777705 23.5 0.5 23.2223 0.5 22.875V19.125C0.5 18.9558 0.565757 18.7975 0.681641 18.6816L8.45801 10.9053L8.36523 10.6152C8.12781 9.87218 8 9.07484 8 8.25C8 3.96989 11.4699 0.5 15.75 0.5ZM17.625 4C16.3129 4 15.25 5.06292 15.25 6.375C15.25 7.68708 16.3129 8.75 17.625 8.75C18.9371 8.75 20 7.68708 20 6.375C20 5.06292 18.9371 4 17.625 4Z" stroke="white" stroke-opacity="0.75"/>
    </symbol>

    <symbol id="info_medium-set" width="24" height="24" viewBox="0 0 24 24" fill="none" xmlns="http://www.w3.org/2000/svg">
        <path d="M12 0.5C15.05 0.5 17.9752 1.7115 20.1318 3.86816C22.2885 6.02483 23.5 8.95001 23.5 12C23.5 15.05 22.2885 17.9752 20.1318 20.1318C17.9752 22.2885 15.05 23.5 12 23.5C8.95001 23.5 6.02483 22.2885 3.86816 20.1318C1.7115 17.9752 0.5 15.05 0.5 12C0.5 8.95001 1.7115 6.02483 3.86816 3.86816C6.02483 1.7115 8.95001 0.5 12 0.5ZM10.125 10C9.22542 10 8.5 10.7254 8.5 11.625C8.5 12.5246 9.22542 13.25 10.125 13.25H10.75V15.25H10.125C9.22542 15.25 8.5 15.9754 8.5 16.875C8.5 17.7746 9.22542 18.5 10.125 18.5H13.875C14.7746 18.5 15.5 17.7746 15.5 16.875C15.5 16.0175 14.8408 15.3194 14 15.2559V11.625C14 10.7254 13.2746 10 12.375 10H10.125ZM12 5.5C11.4696 5.5 10.961 5.71087 10.5859 6.08594C10.2109 6.46101 10 6.96957 10 7.5C10 8.03043 10.2109 8.53899 10.5859 8.91406C10.961 9.28914 11.4696 9.5 12 9.5C12.5304 9.5 13.039 9.28914 13.4141 8.91406C13.7891 8.53899 14 8.03043 14 7.5C14 6.96957 13.7891 6.46101 13.4141 6.08594C13.039 5.71087 12.5304 5.5 12 5.5Z" stroke="white" stroke-opacity="0.75"/>
    </symbol>

    <symbol id="user-add_medium-set" width="24" height="24" viewBox="0 0 24 24" fill="none" xmlns="http://www.w3.org/2000/svg">   
        <path d="M6.68652 12.875H10.1133C13.2167 12.875 15.7998 15.5056 15.7998 18.8398C15.7998 18.8973 15.778 18.9406 15.752 18.9678C15.7268 18.9938 15.7042 18.9999 15.6865 19H1.11328C1.09557 18.9999 1.07293 18.9938 1.04785 18.9678C1.02179 18.9406 1 18.8973 1 18.8398C1 15.5056 3.58314 12.875 6.68652 12.875ZM8.40039 1C9.39455 1.00011 10.3563 1.41148 11.0723 2.15723C11.7897 2.90453 12.2002 3.92626 12.2002 5C12.2002 6.07374 11.7897 7.09547 11.0723 7.84277C10.3563 8.58852 9.39455 8.99989 8.40039 9C7.40605 9 6.44362 8.58868 5.72754 7.84277C5.01013 7.09547 4.59961 6.07374 4.59961 5C4.59961 3.92626 5.01013 2.90453 5.72754 2.15723C6.44362 1.41132 7.40605 1 8.40039 1Z" stroke="white" stroke-opacity="0.85" stroke-width="2"/>
    </symbol>

    <symbol id="steam-ico_medium-set" width="24" height="20" viewBox="0 0 24 24" fill="none" xmlns="http://www.w3.org/2000/svg">
        <path d="M6.68652 12.875H10.1133C13.2167 12.875 15.7998 15.5056 15.7998 18.8398C15.7998 18.8973 15.778 18.9406 15.752 18.9678C15.7268 18.9938 15.7042 18.9999 15.6865 19H1.11328C1.09557 18.9999 1.07293 18.9938 1.04785 18.9678C1.02179 18.9406 1 18.8973 1 18.8398C1 15.5056 3.58314 12.875 6.68652 12.875ZM8.40039 1C9.39455 1.00011 10.3563 1.41148 11.0723 2.15723C11.7897 2.90453 12.2002 3.92626 12.2002 5C12.2002 6.07374 11.7897 7.09547 11.0723 7.84277C10.3563 8.58852 9.39455 8.99989 8.40039 9C7.40605 9 6.44362 8.58868 5.72754 7.84277C5.01013 7.09547 4.59961 6.07374 4.59961 5C4.59961 3.92626 5.01013 2.90453 5.72754 2.15723C6.44362 1.41132 7.40605 1 8.40039 1Z" stroke="white" stroke-opacity="0.85" stroke-width="2"/>
    </symbol>

<!--[small] set of icons in the range 22-18px-->
    <symbol id="card-member_small-set" width="24" height="18" viewBox="0 0 24 18" fill="none" xmlns="http://www.w3.org/2000/svg">
        <path d="M7.33301 14.5713H10C11.2726 14.5713 12.3328 15.625 12.333 16.9639V17.9639H21.333C22.2102 17.9639 22.9075 17.2875 22.9912 16.4541V16.4639C22.9037 17.3387 22.1784 18 21.333 18H2.66699C1.82157 18 1.0963 17.3387 1.00879 16.4639V16.4541C1.09245 17.2875 1.78984 17.9639 2.66699 17.9639H5V16.9639C5.00022 15.6252 6.06052 14.5715 7.33301 14.5713ZM18.9961 12.5361C18.9966 12.537 18.9976 12.5379 18.998 12.5391C18.9985 12.5402 18.9986 12.5419 18.999 12.5439C18.9994 12.546 19 12.5492 19 12.5537C19 12.5581 18.9994 12.5615 18.999 12.5635C18.9986 12.5654 18.9985 12.5672 18.998 12.5684C18.9975 12.5696 18.9967 12.5705 18.9961 12.5713H15.6709C15.6703 12.5705 15.6695 12.5696 15.6689 12.5684C15.6685 12.5672 15.6684 12.5654 15.668 12.5635C15.6676 12.5615 15.667 12.5581 15.667 12.5537C15.667 12.5492 15.6676 12.546 15.668 12.5439C15.6684 12.5419 15.6685 12.5402 15.6689 12.5391C15.6695 12.5378 15.6703 12.537 15.6709 12.5361H18.9961ZM8.66699 8.125C9.38546 8.12518 10 8.72515 10 9.5C10 10.2748 9.38546 10.8748 8.66699 10.875C7.94839 10.875 7.33301 10.275 7.33301 9.5C7.33301 8.72503 7.94839 8.125 8.66699 8.125ZM18.9951 8.46387C18.9959 8.46485 18.9973 8.46605 18.998 8.46777C18.9985 8.46894 18.9986 8.47069 18.999 8.47266C18.9994 8.47468 19 8.47801 19 8.48242C19 8.48677 18.9994 8.49021 18.999 8.49219C18.9986 8.49405 18.9985 8.49596 18.998 8.49707C18.9975 8.49827 18.9967 8.49918 18.9961 8.5H15.6709C15.6703 8.49918 15.6695 8.49829 15.6689 8.49707C15.6685 8.49597 15.6684 8.49402 15.668 8.49219C15.6676 8.49021 15.667 8.48677 15.667 8.48242C15.667 8.47797 15.6676 8.47468 15.668 8.47266C15.6684 8.47063 15.6685 8.46896 15.6689 8.46777C15.6696 8.46623 15.6702 8.46482 15.6709 8.46387H18.9951ZM2.66699 1H21.333C22.2348 1 22.9998 1.75249 23 2.71387V4.42871H1V2.71387C1.00022 1.75249 1.76519 1 2.66699 1Z" stroke="white" stroke-opacity="0.75" stroke-width="1"/>
    </symbol>

    <symbol id="message_small-set" width="24" height="18" viewBox="0 0 24 18" fill="none" xmlns="http://www.w3.org/2000/svg">
        <path d="M23 15C23 16.1024 22.1024 17 21 17H3C1.8976 17 1 16.1024 1 15V8.18652L8.7002 13.9629C10.6541 15.4292 13.3459 15.4292 15.2998 13.9629L23 8.18652V15ZM2.25 1H21.75C22.4399 1 23 1.5601 23 2.25C23 2.6421 22.8161 3.01172 22.5 3.25L12.751 10.5615C12.3047 10.8956 11.6953 10.8956 11.249 10.5615L1.5 3.25C1.18386 3.01173 1 2.6421 1 2.25C1 1.5601 1.5601 1 2.25 1Z" stroke="white" stroke-opacity="0.75" stroke-width="1"/>
    </symbol>

    <symbol id="user-add_small-set" width="24" height="18" viewBox="0 0 24 18" fill="none" xmlns="http://www.w3.org/2000/svg">
        <path d="M6.68652 12.2812H10.1133C13.2645 12.2812 15.7996 14.8045 15.7998 17.8975C15.7998 17.9439 15.759 17.9999 15.6865 18H1.11328C1.04096 17.9998 1 17.9438 1 17.8975C1.00021 14.8045 3.53529 12.2812 6.68652 12.2812ZM8.40039 1C9.41134 1.0001 10.3791 1.39733 11.0908 2.10156C11.8023 2.80565 12.2002 3.75884 12.2002 4.75C12.2002 5.74116 11.8023 6.69435 11.0908 7.39844C10.3791 8.10267 9.41134 8.4999 8.40039 8.5C7.38925 8.5 6.42083 8.10282 5.70898 7.39844C4.99749 6.69435 4.59961 5.74116 4.59961 4.75C4.59961 3.75884 4.99749 2.80565 5.70898 2.10156C6.42083 1.39718 7.38925 1 8.40039 1Z" stroke="white" stroke-opacity="0.85" stroke-width="1"/>
    </symbol>

    <symbol id="user-delete_small-set" width="22" height="18" viewBox="0 0 22 18" fill="none" xmlns="http://www.w3.org/2000/svg">
        <path d="M3.3 4.5C3.3 3.30653 3.76357 2.16193 4.58873 1.31802C5.41389 0.474106 6.53305 0 7.7 0C8.86695 0 9.98611 0.474106 10.8113 1.31802C11.6364 2.16193 12.1 3.30653 12.1 4.5C12.1 5.69347 11.6364 6.83807 10.8113 7.68198C9.98611 8.52589 8.86695 9 7.7 9C6.53305 9 5.41389 8.52589 4.58873 7.68198C3.76357 6.83807 3.3 5.69347 3.3 4.5ZM0 16.9559C0 13.493 2.74313 10.6875 6.12906 10.6875H9.27094C12.6569 10.6875 15.4 13.493 15.4 16.9559C15.4 17.5324 14.9428 18 14.3791 18H1.02094C0.457188 18 0 17.5324 0 16.9559ZM16.225 7.03125H21.175C21.6322 7.03125 22 7.40742 22 7.875C22 8.34258 21.6322 8.71875 21.175 8.71875H16.225C15.7678 8.71875 15.4 8.34258 15.4 7.875C15.4 7.40742 15.7678 7.03125 16.225 7.03125Z" fill="white" fill-opacity="0.85"/>
    </symbol>

    <symbol id="black-list_small-set" width="22" height="18" viewBox="0 0 22 18" fill="none" xmlns="http://www.w3.org/2000/svg"> 
        <path d="M3.3 4.5C3.3 3.30653 3.76357 2.16193 4.58873 1.31802C5.41389 0.474106 6.53305 0 7.7 0C8.86695 0 9.98611 0.474106 10.8113 1.31802C11.6364 2.16193 12.1 3.30653 12.1 4.5C12.1 5.69347 11.6364 6.83807 10.8113 7.68198C9.98611 8.52589 8.86695 9 7.7 9C6.53305 9 5.41389 8.52589 4.58873 7.68198C3.76357 6.83807 3.3 5.69347 3.3 4.5ZM0 16.9559C0 13.493 2.74313 10.6875 6.12906 10.6875H9.27094C12.6569 10.6875 15.4 13.493 15.4 16.9559C15.4 17.5324 14.9428 18 14.3791 18H1.02094C0.457188 18 0 17.5324 0 16.9559ZM16.225 7.03125H21.175C21.6322 7.03125 22 7.40742 22 7.875C22 8.34258 21.6322 8.71875 21.175 8.71875H16.225C15.7678 8.71875 15.4 8.34258 15.4 7.875C15.4 7.40742 15.7678 7.03125 16.225 7.03125Z" fill="white" fill-opacity="0.85"/>
    </symbol>

    <symbol id="notification_small-set" width="22" height="18" viewBox="0 0 22 18" fill="none" xmlns="http://www.w3.org/2000/svg">
        <path d="M3.3 4.5C3.3 3.30653 3.76357 2.16193 4.58873 1.31802C5.41389 0.474106 6.53305 0 7.7 0C8.86695 0 9.98611 0.474106 10.8113 1.31802C11.6364 2.16193 12.1 3.30653 12.1 4.5C12.1 5.69347 11.6364 6.83807 10.8113 7.68198C9.98611 8.52589 8.86695 9 7.7 9C6.53305 9 5.41389 8.52589 4.58873 7.68198C3.76357 6.83807 3.3 5.69347 3.3 4.5ZM0 16.9559C0 13.493 2.74313 10.6875 6.12906 10.6875H9.27094C12.6569 10.6875 15.4 13.493 15.4 16.9559C15.4 17.5324 14.9428 18 14.3791 18H1.02094C0.457188 18 0 17.5324 0 16.9559ZM16.225 7.03125H21.175C21.6322 7.03125 22 7.40742 22 7.875C22 8.34258 21.6322 8.71875 21.175 8.71875H16.225C15.7678 8.71875 15.4 8.34258 15.4 7.875C15.4 7.40742 15.7678 7.03125 16.225 7.03125Z" fill="white" fill-opacity="0.85"/>
    </symbol>

    <symbol id="notification-off_small-set" width="22" height="18" viewBox="0 0 22 18" fill="none" xmlns="http://www.w3.org/2000/svg">
        <path d="M3.3 4.5C3.3 3.30653 3.76357 2.16193 4.58873 1.31802C5.41389 0.474106 6.53305 0 7.7 0C8.86695 0 9.98611 0.474106 10.8113 1.31802C11.6364 2.16193 12.1 3.30653 12.1 4.5C12.1 5.69347 11.6364 6.83807 10.8113 7.68198C9.98611 8.52589 8.86695 9 7.7 9C6.53305 9 5.41389 8.52589 4.58873 7.68198C3.76357 6.83807 3.3 5.69347 3.3 4.5ZM0 16.9559C0 13.493 2.74313 10.6875 6.12906 10.6875H9.27094C12.6569 10.6875 15.4 13.493 15.4 16.9559C15.4 17.5324 14.9428 18 14.3791 18H1.02094C0.457188 18 0 17.5324 0 16.9559ZM16.225 7.03125H21.175C21.6322 7.03125 22 7.40742 22 7.875C22 8.34258 21.6322 8.71875 21.175 8.71875H16.225C15.7678 8.71875 15.4 8.34258 15.4 7.875C15.4 7.40742 15.7678 7.03125 16.225 7.03125Z" fill="white" fill-opacity="0.85"/>
    </symbol>

    <symbol id="shield_small-set" width="18" height="20" viewBox="0 0 18 20" fill="none" xmlns="http://www.w3.org/2000/svg">
        <path d="M8.99625 0C9.16875 0 9.34125 0.0392774 9.49875 0.113904L16.5637 3.25216C17.3887 3.61744 18.0037 4.46976 18 5.49882C17.9812 9.39513 16.4512 16.524 9.99 19.7643C9.36375 20.0786 8.63625 20.0786 8.01 19.7643C1.54501 16.524 0.018767 9.39513 1.70568e-05 5.49882C-0.00373294 4.46976 0.611266 3.61744 1.43626 3.25216L8.4975 0.113904C8.655 0.0392774 8.82375 0 8.99625 0Z" fill="white" fill-opacity="0.25"/>
        <path d="M8.99609 1C9.01783 1 9.04434 1.00531 9.07031 1.01758L9.08203 1.02246L9.09277 1.02734L16.1582 4.16602L16.1592 4.16699C16.6347 4.37772 17.0018 4.87783 17 5.49414C16.9819 9.24931 15.4977 15.883 9.54199 18.8701C9.19795 19.0427 8.80205 19.0427 8.45801 18.8701C2.68503 15.9765 1.11481 9.66084 1.00586 5.85449L1 5.49414C0.998167 4.87783 1.36533 4.37772 1.84082 4.16699L1.84277 4.16602L8.90332 1.02734L8.91504 1.02246L8.92578 1.01758C8.95473 1.00387 8.97761 1.00002 8.99609 1Z" stroke="white" stroke-opacity="0.85" stroke-width="1"/>
    </symbol>

    <symbol id="info_small-set" width="18" height="18" viewBox="0 0 18 18" fill="none" xmlns="http://www.w3.org/2000/svg">
        <path d="M10 0.5C12.5196 0.5 14.9362 1.50063 16.7178 3.28223C18.4994 5.06382 19.5 7.48044 19.5 10C19.5 12.5196 18.4994 14.9362 16.7178 16.7178C14.9362 18.4994 12.5196 19.5 10 19.5C7.48044 19.5 5.06382 18.4994 3.28223 16.7178C1.50063 14.9362 0.5 12.5196 0.5 10C0.5 7.48044 1.50063 5.06382 3.28223 3.28223C5.06382 1.50063 7.48044 0.5 10 0.5ZM8.4375 8.25C7.64183 8.25 7 8.89183 7 9.6875C7 10.4832 7.64183 11.125 8.4375 11.125H8.875V12.625H8.4375C7.64183 12.625 7 13.2668 7 14.0625C7 14.8582 7.64183 15.5 8.4375 15.5H11.5625C12.3582 15.5 13 14.8582 13 14.0625C13 13.3305 12.4565 12.7303 11.75 12.6387V9.6875C11.75 8.89183 11.1082 8.25 10.3125 8.25H8.4375ZM10 4.5C9.53587 4.5 9.09088 4.68451 8.7627 5.0127C8.43451 5.34088 8.25 5.78587 8.25 6.25C8.25 6.71413 8.43451 7.15912 8.7627 7.4873C9.09088 7.81549 9.53587 8 10 8C10.4641 8 10.9091 7.81549 11.2373 7.4873C11.5655 7.15912 11.75 6.71413 11.75 6.25C11.75 5.78587 11.5655 5.34088 11.2373 5.0127C10.9091 4.68451 10.4641 4.5 10 4.5Z" stroke="white" stroke-opacity="0.75"/>
    </symbol>

    <symbol id="key_small-set" width="18" height="18" viewBox="0 0 18 18" fill="none" xmlns="http://www.w3.org/2000/svg">
        <path d="M11.8125 0.5C14.9535 0.5 17.5 3.04645 17.5 6.1875C17.5 9.32855 14.9535 11.875 11.8125 11.875C11.2069 11.875 10.6221 11.7806 10.0771 11.6064L9.78613 11.5146L8.40039 12.9004C8.33724 12.9635 8.25047 13 8.15625 13H6.25V14.9062C6.25 15.0977 6.09769 15.25 5.90625 15.25H4V17.1562C4 17.3477 3.84769 17.5 3.65625 17.5H0.84375C0.652314 17.5 0.5 17.3477 0.5 17.1562V14.3438C0.5 14.2495 0.53646 14.1628 0.599609 14.0996L6.48535 8.21387L6.39355 7.92285C6.21945 7.37789 6.125 6.79313 6.125 6.1875C6.125 3.04645 8.67145 0.5 11.8125 0.5ZM13.2188 2.875C12.1657 2.875 11.3125 3.72815 11.3125 4.78125C11.3125 5.83435 12.1657 6.6875 13.2188 6.6875C14.2718 6.6875 15.125 5.83435 15.125 4.78125C15.125 3.72815 14.2718 2.875 13.2188 2.875Z" stroke="white" stroke-opacity="0.75"/>
    </symbol>

    <symbol id="pedestal-star_small-set" width="22" height="18" viewBox="0 0 22 18" fill="none" xmlns="http://www.w3.org/2000/svg">
        <path d="M1.2002 13.501H6C6.07339 13.501 6.19998 13.5725 6.2002 13.75V18.75C6.2002 18.9279 6.07345 19 6 19H1.2002C1.12674 19 1 18.9279 1 18.75V13.75C1.00022 13.5725 1.12681 13.501 1.2002 13.501ZM9.59961 11.001H14.4004C14.4739 11.0012 14.5996 11.0734 14.5996 11.251V18.75C14.5996 18.9276 14.4739 18.9997 14.4004 19H9.59961C9.5261 18.9997 9.40039 18.9276 9.40039 18.75V11.251C9.40039 11.0734 9.5261 11.0012 9.59961 11.001ZM18 16H22.7998C22.8732 16 22.9999 16.0723 23 16.25V18.75C23 18.9279 22.8733 19 22.7998 19H18C17.9266 19 17.7998 18.9279 17.7998 18.75V16.25C17.7999 16.0723 17.9266 16 18 16ZM12.3643 2.54297L12.6348 3.11426H13.1953L14.0059 3.23535L13.3389 3.9043L12.9766 4.26758L13.0605 4.77441L13.2119 5.68652L12.4863 5.29102L12.0049 5.02832L11.5254 5.29297L10.792 5.69629L10.9424 4.79004L11.0264 4.28711L10.668 3.92383L9.99023 3.23633L10.8799 3.10352L11.4072 3.02441L11.6357 2.54297L12 1.77441L12.3643 2.54297Z" stroke="white" stroke-opacity="0.75" stroke-width="1"/>
    </symbol>

    <symbol id="profill-not-fill_small-set" width="20" height="20" viewBox="0 0 20 20" fill="none" xmlns="http://www.w3.org/2000/svg">
        <path d="M10 0.5C12.5196 0.5 14.9362 1.50063 16.7178 3.28223C18.4994 5.06382 19.5 7.48044 19.5 10C19.5 12.5196 18.4994 14.9362 16.7178 16.7178C14.9362 18.4994 12.5196 19.5 10 19.5C7.48044 19.5 5.06382 18.4994 3.28223 16.7178C1.50063 14.9362 0.5 12.5196 0.5 10C0.5 7.48044 1.50063 5.06382 3.28223 3.28223C5.06382 1.50063 7.48044 0.5 10 0.5ZM8.75 12C6.71278 12 4.92954 13.1097 3.98047 14.7588L3.7998 15.0723L4.04199 15.3418C5.50789 16.9743 7.63352 18 10 18C12.367 18 14.4927 16.9705 15.958 15.3428L16.2002 15.0732L16.0195 14.7588C15.0705 13.1097 13.2872 12 11.25 12H8.75ZM10 4.5C9.12147 4.5 8.27844 4.84851 7.65723 5.46973C7.03601 6.09094 6.6875 6.93397 6.6875 7.8125C6.6875 8.69103 7.03601 9.53406 7.65723 10.1553C8.27844 10.7765 9.12147 11.125 10 11.125C10.8785 11.125 11.7216 10.7765 12.3428 10.1553C12.964 9.53406 13.3125 8.69103 13.3125 7.8125C13.3125 6.93397 12.964 6.09094 12.3428 5.46973C11.7216 4.84851 10.8785 4.5 10 4.5Z" stroke="white" stroke-opacity="0.75"/>
    </symbol>

    <symbol id="search_small-set" width="22" height="22" viewBox="0 0 22 22" fill="none" xmlns="http://www.w3.org/2000/svg">
        <path d="M19.501 9.74857C19.501 11.8998 18.8025 13.887 17.6259 15.4993L23.5605 21.4375C24.1465 22.0233 24.1465 22.9748 23.5605 23.5606C22.9746 24.1465 22.0229 24.1465 21.437 23.5606L15.5023 17.6224C13.8897 18.8035 11.9021 19.4971 9.75048 19.4971C4.36428 19.4971 0 15.1337 0 9.74857C0 4.36342 4.36428 0 9.75048 0C15.1367 0 19.501 4.36342 19.501 9.74857ZM9.75048 16.4976C10.6369 16.4976 11.5147 16.323 12.3337 15.9838C13.1527 15.6447 13.8969 15.1475 14.5237 14.5208C15.1505 13.8941 15.6477 13.1501 15.987 12.3313C16.3262 11.5125 16.5008 10.6349 16.5008 9.74857C16.5008 8.86228 16.3262 7.98466 15.987 7.16584C15.6477 6.34701 15.1505 5.603 14.5237 4.9763C13.8969 4.3496 13.1527 3.85247 12.3337 3.5133C11.5147 3.17413 10.6369 2.99956 9.75048 2.99956C8.86401 2.99956 7.98622 3.17413 7.16724 3.5133C6.34825 3.85247 5.6041 4.3496 4.97727 4.9763C4.35045 5.603 3.85322 6.34701 3.51398 7.16584C3.17475 7.98466 3.00015 8.86228 3.00015 9.74857C3.00015 10.6349 3.17475 11.5125 3.51398 12.3313C3.85322 13.1501 4.35045 13.8941 4.97727 14.5208C5.6041 15.1475 6.34825 15.6447 7.16724 15.9838C7.98622 16.323 8.86401 16.4976 9.75048 16.4976Z" fill="white" fill-opacity="0.85"/>
    </symbol>

    <symbol id="chat_small-set" width="22" height="20" viewBox="0 0 22 20" fill="none" xmlns="http://www.w3.org/2000/svg">
        <path d="M11.001 0.5C16.8826 0.5 21.4997 4.50733 21.5 9.2832C21.5 14.0593 16.8828 18.0674 11.001 18.0674H10.8252C9.35586 18.0472 7.96371 17.7779 6.7041 17.3047L6.44629 17.208L6.22656 17.375C5.74446 17.7412 4.93873 18.2522 3.99023 18.6826C2.99072 19.1326 1.82287 19.5 0.689453 19.5C0.625122 19.4999 0.55293 19.4602 0.517578 19.3721C0.481154 19.2812 0.50353 19.1872 0.560547 19.1279L0.573242 19.1152C0.585144 19.1029 0.595038 19.0913 0.600586 19.085C0.60531 19.0795 0.611837 19.0712 0.614258 19.0684C0.621235 19.0603 0.625597 19.0562 0.628906 19.0527L0.635742 19.0449L0.642578 19.0381L0.868164 18.7656L0.87207 18.7607C1.05904 18.5238 1.31364 18.1739 1.56445 17.7383C2.01796 16.9562 2.46079 15.9092 2.5498 14.7168L2.56543 14.5127L2.43359 14.3564C1.21264 12.9147 0.501953 11.1653 0.501953 9.2832C0.502236 4.50737 5.11938 0.500063 11.001 0.5ZM5.50195 7.35547C4.99843 7.35547 4.51895 7.56316 4.16895 7.92676C3.8197 8.2896 3.62706 8.778 3.62695 9.2832C3.62695 9.78859 3.81957 10.2777 4.16895 10.6406C4.51895 11.0042 4.99843 11.2119 5.50195 11.2119C6.00528 11.2118 6.48406 11.004 6.83398 10.6406C7.18337 10.2777 7.37695 9.78859 7.37695 9.2832C7.37684 8.77797 7.18327 8.2896 6.83398 7.92676C6.48405 7.56332 6.00531 7.35555 5.50195 7.35547ZM11.001 7.35547C10.4976 7.35551 10.0189 7.56333 9.66895 7.92676C9.31966 8.2896 9.12609 8.77797 9.12598 9.2832C9.12598 9.78859 9.31956 10.2777 9.66895 10.6406C10.0189 11.004 10.4976 11.2119 11.001 11.2119C11.5045 11.2119 11.984 11.0042 12.334 10.6406C12.6833 10.2777 12.876 9.78855 12.876 9.2832C12.8759 8.77803 12.6832 8.28959 12.334 7.92676C11.984 7.56316 11.5045 7.35547 11.001 7.35547ZM16.501 7.35547C15.9975 7.35547 15.518 7.56316 15.168 7.92676C14.8187 8.2896 14.6261 8.77797 14.626 9.2832C14.626 9.78859 14.8186 10.2777 15.168 10.6406C15.518 11.0042 15.9975 11.2119 16.501 11.2119C17.0043 11.2118 17.4831 11.004 17.833 10.6406C18.1824 10.2777 18.375 9.78859 18.375 9.2832C18.3749 8.77797 18.1823 8.2896 17.833 7.92676C17.4831 7.56331 17.0043 7.35558 16.501 7.35547Z" stroke="white" stroke-opacity="0.85"/>
    </symbol>

    <symbol id="big-check_small-set" width="24" height="18" viewBox="0 0 24 18" fill="none" xmlns="http://www.w3.org/2000/svg"> 
        <path d="M23.4978 0.527261C24.1674 1.23028 24.1674 2.37197 23.4978 3.07499L9.78507 17.4727C9.1155 18.1758 8.02812 18.1758 7.35855 17.4727L0.502176 10.2739C-0.167392 9.57085 -0.167392 8.42915 0.502176 7.72614C1.17174 7.02312 2.25912 7.02312 2.92869 7.72614L8.57449 13.6483L21.0767 0.527261C21.7462 -0.175754 22.8336 -0.175754 23.5032 0.527261H23.4978Z" fill="white" fill-opacity="0.75"/>
    </symbol>

    <symbol id="medium-check_small-set" width="18" height="16" viewBox="0 0 18 16" fill="none" xmlns="http://www.w3.org/2000/svg">
        <path d="M17.6234 0.468677C18.1255 1.09358 18.1255 2.10842 17.6234 2.73332L7.3388 15.5313C6.83663 16.1562 6.02109 16.1562 5.51892 15.5313L0.376632 9.13232C-0.125544 8.50742 -0.125544 7.49258 0.376632 6.86768C0.878808 6.24277 1.69434 6.24277 2.19652 6.86768L6.43087 12.1319L15.8075 0.468677C16.3097 -0.156226 17.1252 -0.156226 17.6274 0.468677H17.6234Z" fill="white" fill-opacity="0.75"/>
    </symbol>

    <symbol id="small-check_small-set" width="14" height="12" viewBox="0 0 14 12" fill="none" xmlns="http://www.w3.org/2000/svg">
        <path d="M11.7489 0.292923C12.0837 0.683487 12.0837 1.31776 11.7489 1.70833L4.89253 9.70708C4.55775 10.0976 4.01406 10.0976 3.67928 9.70708L0.251088 5.7077C-0.083696 5.31714 -0.083696 4.68286 0.251088 4.2923C0.585872 3.90173 1.12956 3.90173 1.46435 4.2923L4.28724 7.58241L10.5383 0.292923C10.8731 -0.097641 11.4168 -0.097641 11.7516 0.292923H11.7489Z" fill="white" fill-opacity="0.75"/>
    </symbol>

    <symbol id="L-pointer_small-set" width="16" height="18" viewBox="0 0 16 18" fill="none" xmlns="http://www.w3.org/2000/svg">
        <path d="M0.669493 7.94104C-0.223164 8.52675 -0.223164 9.47794 0.669493 10.0636L12.0955 17.5607C12.9882 18.1464 14.4378 18.1464 15.3305 17.5607C16.2232 16.975 16.2232 16.0238 15.3305 15.4381L5.51841 9L15.3234 2.56189C16.216 1.97618 16.216 1.02499 15.3234 0.439281C14.4307 -0.146427 12.981 -0.146427 12.0884 0.439281L0.662352 7.93635L0.669493 7.94104Z" fill="white" fill-opacity="0.85"/>
    </symbol>

    <symbol id="R-pointer_small-set" width="16" height="18" viewBox="0 0 16 18" fill="none" xmlns="http://www.w3.org/2000/svg">
        <path d="M0.669493 7.94104C-0.223164 8.52675 -0.223164 9.47794 0.669493 10.0636L12.0955 17.5607C12.9882 18.1464 14.4378 18.1464 15.3305 17.5607C16.2232 16.975 16.2232 16.0238 15.3305 15.4381L5.51841 9L15.3234 2.56189C16.216 1.97618 16.216 1.02499 15.3234 0.439281C14.4307 -0.146427 12.981 -0.146427 12.0884 0.439281L0.662352 7.93635L0.669493 7.94104Z" fill="white" fill-opacity="0.85"/>
    </symbol>

    <symbol id="L-mini-pointer_small-set" width="10" height="8" viewBox="0 0 10 8" fill="none" xmlns="http://www.w3.org/2000/svg">
        <path d="M0.224532 3.49743C-0.0971945 3.8123 -0.0722061 4.27461 0.293251 4.56699L4.29141 7.76565C4.57878 7.99556 5.00671 8.06303 5.38153 7.93808C5.75636 7.81313 6 7.52325 6 7.19839V0.801058C6 0.478692 5.75636 0.186314 5.38153 0.0613662C5.00671 -0.0635817 4.57878 0.00638896 4.29141 0.233794L0.293251 3.43246L0.224532 3.49244V3.49743Z" fill="white" fill-opacity="0.85"/>
    </symbol>

    <symbol id="R-mini-pointer_small-set" width="10" height="8" viewBox="0 0 10 8" fill="none" xmlns="http://www.w3.org/2000/svg">
        <path d="M5.77655 3.49603C6.09538 3.81099 6.0735 4.27345 5.70778 4.56592L1.70671 7.76558C1.41913 7.99556 0.990891 8.06305 0.615791 7.93806C0.24069 7.81308 0 7.52311 0 7.20064V0.801308C0 0.478842 0.243815 0.186372 0.618916 0.0613853C0.994016 -0.0636017 1.42226 0.00639124 1.70983 0.233867L5.71091 3.43353L5.77968 3.49353L5.77655 3.49603Z" fill="white" fill-opacity="0.85"/>
    </symbol>

    <symbol id="back-arrow_small-set" width="22" height="18" viewBox="0 0 22 18" fill="none" xmlns="http://www.w3.org/2000/svg">
        <path d="M9.35645 16.8535C9.16097 17.0489 8.84195 17.0489 8.64648 16.8535L1.14648 9.35645C0.951263 9.16131 0.951288 8.84359 1.14648 8.64844L1.43945 8.35547V8.35156L8.64648 1.14648C8.84195 0.951101 9.16097 0.951115 9.35645 1.14648C9.55165 1.34161 9.5516 1.65934 9.35645 1.85449L4.41602 6.79297L2.70801 8.50098L22.5 8.50098C22.7778 8.50102 23 8.72336 23 9C23 9.27664 22.7778 9.49898 22.5 9.49902L2.70801 9.49902L4.41602 11.207L9.35645 16.1455C9.5516 16.3407 9.55165 16.6584 9.35645 16.8535Z" stroke="white" stroke-opacity="0.85" stroke-width="2"/>
    </symbol>

    <symbol id="folder_small-set" width="22" height="18" viewBox="0 0 22 18" fill="none" xmlns="http://www.w3.org/2000/svg">
        <path d="M5.5 8.21387H20.7793C21.0261 8.21393 21.2629 8.3512 21.3975 8.59961C21.5349 8.85331 21.5333 9.16141 21.3965 9.40723V9.4082L17.1182 17.123C16.9851 17.3637 16.7476 17.5 16.501 17.5H1.22266C0.975798 17.5 0.738165 17.3636 0.603516 17.1152C0.465999 16.8615 0.46761 16.5525 0.604492 16.3066L0.605469 16.3057L4.88379 8.5918L4.88184 8.59082C5.01981 8.34735 5.25655 8.214 5.5 8.21387ZM2.44434 0.5H6.93262C7.44214 0.5 7.93485 0.710802 8.30078 1.0957L9.3125 2.16016C9.8288 2.70324 10.523 3.02531 11.2578 3.06348L11.4053 3.06738L15.8896 3.07129C16.9382 3.07129 17.8348 3.97642 17.835 5.14258V5.92871H5.5C4.43827 5.92884 3.47392 6.52193 2.95117 7.46387L0.5 11.8809V2.57129C0.500071 1.40516 1.39581 0.500154 2.44434 0.5Z" stroke="white" stroke-opacity="0.85"/>
    </symbol>

    <symbol id="rotate-circle_small-set" width="18" height="18" viewBox="0 0 18 18" fill="none" xmlns="http://www.w3.org/2000/svg">
        <path d="M16.7393 7.71474H17.069C17.5849 7.71474 18 7.28489 18 6.75059V1.60846C18 1.21878 17.775 0.86526 17.4259 0.71662C17.0768 0.567981 16.6772 0.648327 16.4096 0.92552L14.7959 2.59671C11.3978 -0.878243 5.92436 -0.866191 2.54566 2.63688C-0.848553 6.15201 -0.848553 11.8485 2.54566 15.3637C5.93987 18.8788 11.4404 18.8788 14.8347 15.3637C15.3195 14.8615 15.3195 14.046 14.8347 13.5438C14.3498 13.0417 13.5623 13.0417 13.0774 13.5438C10.653 16.0546 6.72345 16.0546 4.29901 13.5438C1.87458 11.033 1.87458 6.9635 4.29901 4.4527C6.71182 1.95395 10.6103 1.94189 13.0386 4.41253L11.4443 6.06765C11.1767 6.34484 11.0991 6.75862 11.2426 7.12018C11.3861 7.48173 11.7275 7.71474 12.1038 7.71474H16.7393Z" fill="white" fill-opacity="0.85"/>
    </symbol>

    <symbol id="burger-ico_small-set" width="22" height="18" viewBox="0 0 22 18" fill="none" xmlns="http://www.w3.org/2000/svg">
        <path d="M0 1.5C0 0.670312 0.702232 0 1.57143 0H20.4286C21.2978 0 22 0.670312 22 1.5C22 2.32969 21.2978 3 20.4286 3H1.57143C0.702232 3 0 2.32969 0 1.5ZM0 9C0 8.17031 0.702232 7.5 1.57143 7.5H20.4286C21.2978 7.5 22 8.17031 22 9C22 9.82969 21.2978 10.5 20.4286 10.5H1.57143C0.702232 10.5 0 9.82969 0 9ZM22 16.5C22 17.3297 21.2978 18 20.4286 18H1.57143C0.702232 18 0 17.3297 0 16.5C0 15.6703 0.702232 15 1.57143 15H20.4286C21.2978 15 22 15.6703 22 16.5Z" fill="white" fill-opacity="0.85"/>
    </symbol>

    <symbol id="burger-points_small-set" width="18" height="6" viewBox="0 0 18 6" fill="none" xmlns="http://www.w3.org/2000/svg">
        <path d="M2.85156 0.5C3.46691 0.5 4.06262 0.75737 4.50586 1.22363C4.94982 1.69074 5.2041 2.32909 5.2041 3C5.2041 3.67091 4.94982 4.30926 4.50586 4.77637C4.06262 5.24263 3.46691 5.5 2.85156 5.5C2.23632 5.49992 1.64043 5.24256 1.19727 4.77637C0.753473 4.30928 0.5 3.67077 0.5 3L0.511719 2.75C0.566344 2.17212 0.809001 1.63227 1.19727 1.22363C1.64043 0.757443 2.23632 0.500081 2.85156 0.5ZM11 0.5C11.6153 0.5 12.2111 0.75737 12.6543 1.22363C13.0982 1.69073 13.3516 2.32916 13.3516 3C13.3516 3.67084 13.0982 4.30927 12.6543 4.77637C12.2111 5.24263 11.6153 5.5 11 5.5C10.3847 5.5 9.78894 5.24263 9.3457 4.77637C8.90183 4.30927 8.64844 3.67084 8.64844 3L8.66016 2.75C8.71479 2.17207 8.95736 1.63229 9.3457 1.22363C9.78894 0.75737 10.3847 0.5 11 0.5ZM19.1484 0.5C19.7637 0.500081 20.3596 0.757443 20.8027 1.22363C21.2465 1.69072 21.5 2.32923 21.5 3C21.5 3.67077 21.2465 4.30928 20.8027 4.77637C20.3596 5.24256 19.7637 5.49992 19.1484 5.5C18.5331 5.5 17.9374 5.24263 17.4941 4.77637C17.0502 4.30926 16.7959 3.67091 16.7959 3C16.7959 2.32909 17.0502 1.69074 17.4941 1.22363C17.9374 0.757369 18.5331 0.5 19.1484 0.5Z" stroke="white" stroke-opacity="0.75"/>
    </symbol>
</svg>